<?xml version="1.0" encoding="UTF-8"?>
<svg width="275px" height="291px" viewBox="0 0 275 291" version="1.1"
    xmlns="http://www.w3.org/2000/svg"
    xmlns:xlink="http://www.w3.org/1999/xlink">
    <!-- Generator: Sketch 55.2 (78181) - https://sketchapp.com -->
    <title>LogoBlue</title>
    <desc>Created with Sketch.</desc>
    <g id="LogoBlue" stroke="none" stroke-width="1" fill="none" fill-rule="evenodd">
        <path d="M221.724871,163.135 L148.848871,236.01 C145.202871,239.658 139.268871,239.658
        135.620871,236.01 C131.973871,232.364 131.973871,226.43 135.620871,222.782 L153.839871,
        204.564 C153.840871,204.563 153.840871,204.563 153.840871,204.563 L208.495871,149.907
        C210.879871,147.523 213.662871,147.167 215.110871,147.167 C216.557871,147.167 219.340871,
        147.523 221.724871,149.907 C225.371871,153.554 225.371871,159.488 221.724871,163.135
        M215.110871,97.167 C199.256871,97.167 184.351871,103.341 173.140871,114.552 L124.562871,
        163.13 L124.557871,163.135 C116.301871,171.39 105.326871,175.937 93.6518705,175.937
        C81.9778705,175.937 71.0008705,171.39 62.7458705,163.135 C45.7048705,146.094
        45.7038705,118.367 62.7438705,101.326 L111.328871,52.74 C113.712871,50.356 116.495871,50
        117.943871,50 C119.390871,50 122.173871,50.356 124.557871,52.74 C128.203871,56.387
        128.203871,62.321 124.557871,65.968 L74.9018705,115.625 C65.1378705,125.388 65.1378705,141.217
        74.9018705,150.98 C79.7828705,155.862 86.1808705,158.302 92.5788705,158.302 C98.9768705,158.302
        105.374871,155.862 110.256871,150.98 L159.912871,101.323 C183.054871,78.181 183.054871,40.527
        159.912871,17.385 C148.702871,6.174 133.797871,0 117.943871,0 C102.088871,0 87.1848705,6.174
        75.9738705,17.385 L27.3928705,65.966 L25.7898705,67.568 C25.2128705,68.146 24.6728705,68.746
        24.1628705,69.364 C-8.82212949,105.782 -8.03012949,162.071 26.5028705,197.556 C26.7888705,
        197.873 27.0848705,198.185 27.3908705,198.49 C38.3408705,209.44 51.5248705,217.342 65.9128705,
        221.78 L39.5368705,248.156 C29.7738705,257.92 29.7738705,273.749 39.5368705,283.512 C44.4178705,288.393
        50.8158705,290.834 57.2138705,290.834 C63.6128705,290.834 70.0108705,288.393 74.8918705,283.512
        L94.1778705,264.226 C95.9908705,266.724 98.0158705,269.115 100.265871,271.366 C111.836871,282.937
        127.036871,288.722 142.235871,288.722 C157.434871,288.722 172.633871,282.937 184.203871,271.366
        L257.079871,198.49 C280.221871,175.348 280.221871,137.694 257.079871,114.552 C245.869871,103.341
        230.963871,97.167 215.110871,97.167 Z"
        id="Fill-1"
        fill="#ffffff">
        </path>
    </g>
</svg>
